<svg width="68" height="68" viewBox="0 0 68 68" fill="none" xmlns="http://www.w3.org/2000/svg">
<rect width="68" height="68" rx="34" fill="#C2F5FF"/>
<rect x="31.7295" y="9" width="24.9566" height="34.761" rx="2" transform="rotate(15 31.7295 9)" fill="url(#paint0_linear_0_1)" stroke="#E4E4E4"/>
<path fill-rule="evenodd" clip-rule="evenodd" d="M38.5302 33.4852C38.4143 33.3327 38.2972 33.1797 38.1797 33.0262C36.5408 30.8843 34.8288 28.6471 35.3027 26.6581C35.8981 24.6731 37.4389 24.3711 38.6234 24.6885C39.3167 24.8742 40.0048 25.4818 40.4186 26.3021C41.1243 25.7818 41.9569 25.5817 42.6502 25.7675C43.8346 26.0849 45.1365 27.1485 44.6596 29.1653C44.0534 31.1989 41.3849 32.3165 38.8199 33.3908C38.7345 33.4265 38.6492 33.4622 38.5641 33.4979C38.558 33.5006 38.552 33.5032 38.5459 33.5058C38.5458 33.5057 38.5458 33.5057 38.5458 33.5056C38.5457 33.5057 38.5456 33.5057 38.5455 33.5057C38.5404 33.4989 38.5352 33.492 38.5302 33.4852Z" fill="#FF4545"/>
<rect x="9.80664" y="24.6251" width="24.9566" height="34.761" rx="2" transform="rotate(-15 9.80664 24.6251)" fill="white" stroke="#E4E4E4"/>
<path fill-rule="evenodd" clip-rule="evenodd" d="M25.1215 35.4952C24.353 34.9918 23.4534 34.8097 22.7601 34.9955C21.5757 35.3129 20.3923 36.3448 20.8692 38.3615C21.4533 40.321 24.0545 41.4026 26.5447 42.438C26.7244 42.5127 26.9035 42.5872 27.0812 42.6617C27.0879 42.6646 27.0945 42.6675 27.1012 42.6703C27.1013 42.6702 27.1013 42.6702 27.1013 42.6701C27.1014 42.6702 27.1015 42.6702 27.1016 42.6703C27.1076 42.6624 27.1135 42.6545 27.1193 42.6466C27.1732 42.5756 27.2272 42.5046 27.2813 42.4335C28.9656 40.2207 30.7177 37.9186 30.2259 35.8543C29.6306 33.8693 27.9713 33.5991 26.7868 33.9164C26.0935 34.1022 25.4725 34.6918 25.1215 35.4952Z" fill="#FF4545"/>
<defs>
<linearGradient id="paint0_linear_0_1" x1="41.9795" y1="17.0218" x2="32.1751" y2="25.0435" gradientUnits="userSpaceOnUse">
<stop stop-color="white"/>
<stop offset="1" stop-color="#F0F0F0"/>
</linearGradient>
</defs>
</svg>
