<svg width="32" height="32" viewBox="0 0 32 32" fill="none" xmlns="http://www.w3.org/2000/svg">
<path d="M26.0369 21.4848C25.8394 21.4042 25.6226 21.383 25.4131 21.4237C25.2037 21.4644 25.0107 21.5652 24.8579 21.7137L24.7222 21.849C23.5553 23.0367 22.1623 23.9798 20.625 24.6233C19.0877 25.2667 17.4371 25.5974 15.77 25.5959C14.1026 25.5718 12.4566 25.218 10.9272 24.5552C9.39771 23.8924 8.01517 22.9337 6.85951 21.7345C6.71102 21.5759 6.51653 21.4676 6.30326 21.4246C6.08998 21.3817 5.86859 21.4064 5.67006 21.4952C5.46189 21.5747 5.28474 21.7187 5.16457 21.906C5.0444 22.0933 4.98753 22.3141 5.00229 22.536V27.9592C5.00229 28.2352 5.11222 28.5 5.30789 28.6952C5.50356 28.8903 5.76895 29 6.04567 29H25.6196C25.8963 29 26.1617 28.8903 26.3573 28.6952C26.553 28.5 26.6629 28.2352 26.6629 27.9592V22.4839C26.672 22.2738 26.6171 22.0658 26.5053 21.8875C26.3936 21.7091 26.2303 21.5687 26.0369 21.4848Z" fill="url(#paint0_linear_201_74)"/>
<path d="M15.8536 3C13.7075 3 11.6095 3.63484 9.82504 4.82424C8.04057 6.01364 6.64975 7.70418 5.82844 9.68208C5.00714 11.66 4.79225 13.8364 5.21095 15.9361C5.62964 18.0359 6.66312 19.9646 8.18069 21.4784C9.69825 22.9922 11.6318 24.0232 13.7367 24.4408C15.8416 24.8585 18.0234 24.6441 20.0062 23.8248C21.989 23.0056 23.6837 21.6182 24.8761 19.8381C26.0684 18.0581 26.7048 15.9653 26.7048 13.8244C26.6993 10.9553 25.5543 8.20525 23.5205 6.17647C21.4867 4.14769 18.7299 3.0055 15.8536 3Z" fill="url(#paint1_radial_201_74)"/>
<defs>
<linearGradient id="paint0_linear_201_74" x1="15.832" y1="21.4035" x2="15.832" y2="30.061" gradientUnits="userSpaceOnUse">
<stop stop-color="#FFB500"/>
<stop offset="1" stop-color="#FFE052"/>
</linearGradient>
<radialGradient id="paint1_radial_201_74" cx="0" cy="0" r="1" gradientUnits="userSpaceOnUse" gradientTransform="translate(15.8536 24.6406) rotate(90) scale(16.0758 16.1156)">
<stop offset="0.015625" stop-color="#7F12F4"/>
<stop offset="1" stop-color="#E0C5FF"/>
</radialGradient>
</defs>
</svg>
